<mxfile host="Electron" agent="Mozilla/5.0 (Windows NT 10.0; Win64; x64) AppleWebKit/537.36 (KHTML, like Gecko) draw.io/27.0.5 Chrome/134.0.6998.205 Electron/35.3.0 Safari/537.36" version="27.0.5">
  <diagram name="Page-1" id="u17v75hyvRixG0gyOEh2">
    <mxGraphModel dx="1188" dy="708" grid="1" gridSize="10" guides="1" tooltips="1" connect="1" arrows="1" fold="1" page="1" pageScale="1" pageWidth="827" pageHeight="1169" math="1" shadow="0">
      <root>
        <mxCell id="0" />
        <mxCell id="1" parent="0" />
        <mxCell id="b630nYO2X0hqikg10LsY-5" value="" style="rounded=0;whiteSpace=wrap;html=1;dashed=1;" vertex="1" parent="1">
          <mxGeometry x="408" y="198" width="70" height="70" as="geometry" />
        </mxCell>
        <mxCell id="b630nYO2X0hqikg10LsY-6" value="&lt;b&gt;Heap&lt;/b&gt;" style="text;html=1;align=center;verticalAlign=middle;resizable=0;points=[];autosize=1;strokeColor=none;fillColor=none;" vertex="1" parent="1">
          <mxGeometry x="412.5" y="198" width="50" height="30" as="geometry" />
        </mxCell>
        <mxCell id="b630nYO2X0hqikg10LsY-7" value="" style="rounded=0;whiteSpace=wrap;html=1;" vertex="1" parent="1">
          <mxGeometry x="422" y="226" width="41" height="14" as="geometry" />
        </mxCell>
        <mxCell id="b630nYO2X0hqikg10LsY-8" value="&quot;Hello&quot;" style="text;html=1;align=center;verticalAlign=middle;resizable=0;points=[];autosize=1;strokeColor=none;fillColor=none;" vertex="1" parent="1">
          <mxGeometry x="412.5" y="218" width="60" height="30" as="geometry" />
        </mxCell>
        <mxCell id="b630nYO2X0hqikg10LsY-24" value="" style="rounded=0;whiteSpace=wrap;html=1;dashed=1;" vertex="1" parent="1">
          <mxGeometry x="408" y="380" width="70" height="70" as="geometry" />
        </mxCell>
        <mxCell id="b630nYO2X0hqikg10LsY-25" value="&lt;b&gt;Heap&lt;/b&gt;" style="text;html=1;align=center;verticalAlign=middle;resizable=0;points=[];autosize=1;strokeColor=none;fillColor=none;" vertex="1" parent="1">
          <mxGeometry x="412.5" y="380" width="50" height="30" as="geometry" />
        </mxCell>
        <mxCell id="b630nYO2X0hqikg10LsY-26" value="" style="rounded=0;whiteSpace=wrap;html=1;" vertex="1" parent="1">
          <mxGeometry x="422" y="408" width="41" height="14" as="geometry" />
        </mxCell>
        <mxCell id="b630nYO2X0hqikg10LsY-27" value="&quot;Hello&quot;" style="text;html=1;align=center;verticalAlign=middle;resizable=0;points=[];autosize=1;strokeColor=none;fillColor=none;" vertex="1" parent="1">
          <mxGeometry x="412.5" y="400" width="60" height="30" as="geometry" />
        </mxCell>
        <mxCell id="RtmIqFS7cts_7SJcEz5J-3" value="Untitled Layer" parent="0" />
        <mxCell id="b630nYO2X0hqikg10LsY-9" value="" style="rounded=0;whiteSpace=wrap;html=1;dashed=1;" vertex="1" parent="RtmIqFS7cts_7SJcEz5J-3">
          <mxGeometry x="180" y="180" width="100" height="100" as="geometry" />
        </mxCell>
        <mxCell id="b630nYO2X0hqikg10LsY-10" value="&lt;b&gt;Stack&lt;/b&gt;" style="text;html=1;align=center;verticalAlign=middle;resizable=0;points=[];autosize=1;strokeColor=none;fillColor=none;" vertex="1" parent="RtmIqFS7cts_7SJcEz5J-3">
          <mxGeometry x="200" y="180" width="60" height="30" as="geometry" />
        </mxCell>
        <mxCell id="b630nYO2X0hqikg10LsY-11" value="s1" style="rounded=0;whiteSpace=wrap;html=1;" vertex="1" parent="RtmIqFS7cts_7SJcEz5J-3">
          <mxGeometry x="200" y="240" width="30" height="30" as="geometry" />
        </mxCell>
        <mxCell id="b630nYO2X0hqikg10LsY-12" value="$$\bullet$$" style="rounded=0;whiteSpace=wrap;html=1;" vertex="1" parent="RtmIqFS7cts_7SJcEz5J-3">
          <mxGeometry x="230" y="240" width="30" height="30" as="geometry" />
        </mxCell>
        <mxCell id="b630nYO2X0hqikg10LsY-13" value="main" style="text;html=1;align=center;verticalAlign=middle;resizable=0;points=[];autosize=1;strokeColor=none;fillColor=none;" vertex="1" parent="RtmIqFS7cts_7SJcEz5J-3">
          <mxGeometry x="205" y="210" width="50" height="30" as="geometry" />
        </mxCell>
        <mxCell id="b630nYO2X0hqikg10LsY-14" value="" style="rounded=0;whiteSpace=wrap;html=1;dashed=1;" vertex="1" parent="RtmIqFS7cts_7SJcEz5J-3">
          <mxGeometry x="180" y="340" width="100" height="140" as="geometry" />
        </mxCell>
        <mxCell id="b630nYO2X0hqikg10LsY-15" value="&lt;b&gt;Stack&lt;/b&gt;" style="text;html=1;align=center;verticalAlign=middle;resizable=0;points=[];autosize=1;strokeColor=none;fillColor=none;" vertex="1" parent="RtmIqFS7cts_7SJcEz5J-3">
          <mxGeometry x="200" y="340" width="60" height="30" as="geometry" />
        </mxCell>
        <mxCell id="b630nYO2X0hqikg10LsY-16" value="s1" style="rounded=0;whiteSpace=wrap;html=1;opacity=40;textOpacity=40;" vertex="1" parent="RtmIqFS7cts_7SJcEz5J-3">
          <mxGeometry x="200" y="410" width="30" height="30" as="geometry" />
        </mxCell>
        <mxCell id="b630nYO2X0hqikg10LsY-17" value="$$\bullet$$" style="rounded=0;whiteSpace=wrap;html=1;opacity=40;textOpacity=40;" vertex="1" parent="RtmIqFS7cts_7SJcEz5J-3">
          <mxGeometry x="230" y="410" width="30" height="30" as="geometry" />
        </mxCell>
        <mxCell id="b630nYO2X0hqikg10LsY-18" value="s2" style="rounded=0;whiteSpace=wrap;html=1;" vertex="1" parent="RtmIqFS7cts_7SJcEz5J-3">
          <mxGeometry x="200" y="440" width="30" height="30" as="geometry" />
        </mxCell>
        <mxCell id="b630nYO2X0hqikg10LsY-19" value="$$\bullet$$" style="rounded=0;whiteSpace=wrap;html=1;" vertex="1" parent="RtmIqFS7cts_7SJcEz5J-3">
          <mxGeometry x="230" y="440" width="30" height="30" as="geometry" />
        </mxCell>
        <mxCell id="b630nYO2X0hqikg10LsY-20" value="main" style="text;html=1;align=center;verticalAlign=middle;resizable=0;points=[];autosize=1;strokeColor=none;fillColor=none;" vertex="1" parent="RtmIqFS7cts_7SJcEz5J-3">
          <mxGeometry x="205" y="380" width="50" height="30" as="geometry" />
        </mxCell>
        <mxCell id="b630nYO2X0hqikg10LsY-21" value="" style="endArrow=classic;html=1;rounded=0;exitX=1;exitY=0.5;exitDx=0;exitDy=0;entryX=0.017;entryY=0.456;entryDx=0;entryDy=0;entryPerimeter=0;curved=1;" edge="1" parent="RtmIqFS7cts_7SJcEz5J-3" source="b630nYO2X0hqikg10LsY-12">
          <mxGeometry width="50" height="50" relative="1" as="geometry">
            <mxPoint x="400" y="310" as="sourcePoint" />
            <mxPoint x="421.02" y="233.68000000000006" as="targetPoint" />
            <Array as="points">
              <mxPoint x="340" y="260" />
              <mxPoint x="340" y="230" />
            </Array>
          </mxGeometry>
        </mxCell>
        <mxCell id="b630nYO2X0hqikg10LsY-22" value="" style="endArrow=classic;html=1;rounded=0;exitX=1;exitY=0.5;exitDx=0;exitDy=0;entryX=0.017;entryY=0.456;entryDx=0;entryDy=0;entryPerimeter=0;curved=1;opacity=40;" edge="1" parent="RtmIqFS7cts_7SJcEz5J-3">
          <mxGeometry width="50" height="50" relative="1" as="geometry">
            <mxPoint x="260" y="430" as="sourcePoint" />
            <mxPoint x="421" y="409" as="targetPoint" />
            <Array as="points">
              <mxPoint x="340" y="435" />
              <mxPoint x="340" y="405" />
            </Array>
          </mxGeometry>
        </mxCell>
        <mxCell id="b630nYO2X0hqikg10LsY-23" value="" style="endArrow=classic;html=1;rounded=0;exitX=1;exitY=0.5;exitDx=0;exitDy=0;entryX=0.028;entryY=0.789;entryDx=0;entryDy=0;entryPerimeter=0;curved=1;" edge="1" parent="RtmIqFS7cts_7SJcEz5J-3">
          <mxGeometry width="50" height="50" relative="1" as="geometry">
            <mxPoint x="260" y="457" as="sourcePoint" />
            <mxPoint x="421.68000000000006" y="419.6700000000001" as="targetPoint" />
            <Array as="points">
              <mxPoint x="340" y="462" />
              <mxPoint x="340" y="432" />
              <mxPoint x="380" y="420" />
            </Array>
          </mxGeometry>
        </mxCell>
      </root>
    </mxGraphModel>
  </diagram>
</mxfile>
